<svg width="428" height="100" viewBox="0 0 428 100" fill="none" xmlns="http://www.w3.org/2000/svg">
<path d="M404 0C417.255 0 428 22.3858 428 50C428 77.6142 417.255 100 404 100C396.267 100 389.389 92.379 385 80.5459C380.611 92.379 373.733 100 366 100C358.267 100 351.389 92.379 347 80.5459C342.611 92.379 335.733 100 328 100C320.267 100 313.389 92.379 309 80.5459C304.611 92.379 297.733 100 290 100C282.267 100 275.389 92.379 271 80.5459C266.611 92.379 259.733 100 252 100C244.267 100 237.389 92.379 233 80.5459C228.611 92.379 221.733 100 214 100C206.267 100 199.389 92.379 195 80.5459C190.611 92.379 183.733 100 176 100C168.267 100 161.389 92.379 157 80.5459C152.611 92.379 145.733 100 138 100C130.267 100 123.389 92.379 119 80.5459C114.611 92.379 107.733 100 100 100C92.2665 100 85.3892 92.379 81 80.5459C76.6108 92.379 69.7335 100 62 100C54.2665 100 47.3892 92.379 43 80.5459C38.6108 92.379 31.7335 100 24 100C10.7452 100 0 77.6142 0 50C0 22.3858 10.7452 0 24 0C31.7333 0 38.6108 7.62055 43 19.4531C47.3892 7.62055 54.2667 0 62 0C69.7333 0 76.6108 7.62055 81 19.4531C85.3892 7.62055 92.2667 0 100 0C107.733 0 114.611 7.62055 119 19.4531C123.389 7.62055 130.267 0 138 0C145.733 0 152.611 7.62055 157 19.4531C161.389 7.62055 168.267 0 176 0C183.733 0 190.611 7.62055 195 19.4531C199.389 7.62055 206.267 0 214 0C221.733 0 228.611 7.62055 233 19.4531C237.389 7.62055 244.267 0 252 0C259.733 0 266.611 7.62055 271 19.4531C275.389 7.62055 282.267 0 290 0C297.733 0 304.611 7.62055 309 19.4531C313.389 7.62055 320.267 0 328 0C335.733 0 342.611 7.62055 347 19.4531C351.389 7.62055 358.267 0 366 0C373.733 0 380.611 7.62055 385 19.4531C389.389 7.62055 396.267 0 404 0Z" fill="white"/>
</svg>
